<svg width="400" height="80" xmlns="http://www.w3.org/2000/svg">

 <g>
  <title>Layer 1</title>
  <g stroke="null">
   <path stroke="null" fill="#fff" d="m90.14134,50.01113c5.57886,0 8.50817,-3.18232 8.50817,-8.23198l0,-16.65997l-10.60358,0l0,4.56857l4.87148,0l0,12.2179c0,2.42327 -0.95862,3.68836 -2.92752,3.68836c-1.69272,0 -2.80279,-1.06196 -3.18232,-3.56185l-5.45235,0.80894c0.784,4.97304 3.53512,7.17002 8.78435,7.17002l0.00178,0zm28.62842,-6.18646c0,-3.81308 -2.82774,-5.04788 -6.71566,-5.93344c-3.71152,-0.85705 -4.13916,-1.46287 -4.13916,-2.54799c0,-0.85883 0.65571,-1.56622 2.3716,-1.56622c1.59116,0 2.77785,0.784 2.85447,2.27181l5.1245,-0.3528c-0.42942,-3.08076 -3.2821,-5.32763 -7.80078,-5.32763c-4.9481,0 -7.57449,2.29854 -7.57449,5.68043c0,3.1057 1.56443,4.97483 6.33613,6.0849c3.05581,0.70738 3.98948,1.18669 3.98948,2.47494c0,1.15996 -0.85883,1.86734 -2.72618,1.86734c-2.19698,0 -3.00414,-1.3132 -3.15559,-2.57472l-4.99977,0.55593c0.40447,2.90258 2.52483,5.55392 8.23198,5.55392c5.42741,0 8.20347,-2.29854 8.20347,-6.18646zm22.97472,-10.93143c0,-4.69508 -2.95425,-7.95224 -9.41689,-7.95224l-10.0726,0l0,24.71555l5.6537,0l0,-8.4066l4.67192,0c6.36108,0 9.16387,-4.11599 9.16387,-8.35671zm-5.73032,0.07662c0,2.29854 -1.3132,3.81308 -4.14094,3.81308l-3.96454,0l0,-7.44799l3.81308,0c2.82774,0 4.29239,1.26152 4.29239,3.6349zm27.21544,13.15336l-1.3132,0c-1.03523,0 -1.33814,-0.50604 -1.33814,-1.38982l0,-7.44799c0,-4.51868 -2.39832,-6.917 -7.75089,-6.917c-5.25101,0 -7.80078,2.34843 -8.12864,5.75526l5.09955,0.30291c0,-1.76578 0.95862,-2.75112 2.72618,-2.75112c1.69272,0 2.67629,0.80894 2.67629,2.97919l0,1.59116l-1.86912,0c-6.23635,0 -9.36522,1.69272 -9.36522,6.10984c0,2.85269 1.89229,5.65548 6.10984,5.65548c2.57472,0 4.69508,-1.08691 5.57886,-3.51017c0.04989,2.29854 1.91901,3.51017 4.5953,3.51017c1.21163,0 1.76756,-0.02495 2.97919,-0.15145l0,-3.73647zm-11.23612,0.3528c-1.81745,0 -2.64956,-1.23658 -2.64956,-2.62639c0,-2.12036 1.63927,-2.77607 3.45672,-2.77607l2.4001,0l0,1.41298c0,2.5765 -1.33814,3.99126 -3.20727,3.99126l0,-0.00178zm22.04105,3.53512c5.55392,0 8.2302,-3.25716 8.65962,-6.9669l-5.40246,-0.20313c-0.25302,2.39832 -1.4896,3.45672 -3.15559,3.45672c-2.34843,0 -3.48523,-1.96712 -3.48523,-6.20962c0,-4.01443 1.01029,-5.90672 3.38367,-5.90672c1.86734,0 2.90436,1.18669 3.1057,3.18054l5.45235,-0.25302c-0.45436,-3.6349 -3.20727,-6.7406 -8.55806,-6.7406c-5.93344,0 -9.14071,3.58501 -9.14071,9.89798c0,5.95661 3.00592,9.74474 9.14071,9.74474zm24.18635,-0.35458l5.95839,0l-6.94373,-11.46063l6.38781,-7.47293l-5.85682,0l-6.18646,7.44799l0,-16.23411l-5.52897,0l0,27.71969l5.52897,0l0,-6.63904l1.89407,-1.59116l4.74675,8.2302zm26.45817,-3.53334l-1.28825,0c-1.03345,0 -1.36309,-0.50604 -1.36309,-1.38982l0,-7.44799c0,-4.51868 -2.39832,-6.917 -7.72595,-6.917c-5.27595,0 -7.82573,2.34843 -8.12864,5.75526l5.07461,0.30291c0,-1.76578 0.95862,-2.75112 2.72618,-2.75112c1.69272,0 2.70123,0.80894 2.70123,2.97919l0,1.59116l-1.89229,0c-6.21141,0 -9.367,1.69272 -9.367,6.10984c0,2.85269 1.91901,5.65548 6.13479,5.65548c2.57472,0 4.69508,-1.08691 5.57886,-3.51017c0.02495,2.29854 1.89407,3.51017 4.5953,3.51017c1.18669,0 1.76756,-0.02495 2.95425,-0.15145l0,-3.73647zm-11.23434,0.3528c-1.79251,0 -2.65134,-1.23658 -2.65134,-2.62639c0,-2.12036 1.666,-2.77607 3.4585,-2.77607l2.42327,0l0,1.41298c0,2.5765 -1.36309,3.99126 -3.23043,3.99126l0,-0.00178zm19.94385,3.15559c3.20727,0 5.20112,-1.3132 6.0849,-3.53334c-0.05167,0.3528 -0.05167,0.80716 -0.05167,1.08513l0,2.75112c0,3.4585 -1.41298,4.64519 -3.65985,4.64519c-2.07047,0 -3.00414,-1.06018 -3.30705,-2.60145l-5.42919,0.53098c0.48109,3.00592 2.7529,5.5557 8.55984,5.5557c6.13479,0 9.39016,-2.67629 9.39016,-8.25693l0,-14.61623c0,-1.41476 0.07662,-3.88792 0.15324,-4.46879l-5.27774,0a67.66085,67.66085 0 0 0 -0.27796,3.20727c-0.85705,-2.32349 -3.10392,-3.56185 -5.83188,-3.56185c-4.92315,0 -7.39631,3.48523 -7.39631,9.56834c0,6.01006 2.19698,9.69485 7.04351,9.69485zm6.0849,-9.76969c0,4.51868 -1.91901,5.80693 -3.78814,5.80693c-2.44821,0 -3.58501,-1.91901 -3.58501,-5.7321c0,-4.13916 1.38982,-5.68043 3.61174,-5.68043c1.91723,0 3.75963,1.33814 3.75963,5.60559l0.00178,0zm18.15135,10.14922c5.83188,0 7.67606,-2.7529 8.38166,-5.83188l-5.22606,-0.32964c-0.32785,1.84418 -1.23658,2.62639 -2.97919,2.62639c-2.64956,0 -3.48345,-2.37338 -3.48345,-4.7717l0,-0.50425l11.96667,0s0.07662,-0.80894 0.07662,-1.64105c0,-5.27774 -2.14709,-9.1906 -8.68635,-9.1906c-5.07283,0 -9.23871,2.32349 -9.23871,9.7198c0,6.66399 3.2821,9.92293 9.18882,9.92293zm-0.07484,-16.33568c1.91723,0 3.13065,0.98534 3.13065,4.29417l0,0.04811l-6.36286,0c0.10156,-3.35694 1.43971,-4.34228 3.23221,-4.34228zm12.67227,15.98288l17.068,0l0,-4.52046l-11.41252,0l0,-20.19687l-5.65548,0l0,24.71733zm33.09899,-9.46856c0,4.19083 -1.26331,6.13479 -3.93781,6.13479c-2.42327,0 -3.86297,-2.1453 -3.86297,-6.13479s1.26152,-5.98333 3.96276,-5.98333c2.42327,0 3.83803,2.0188 3.83803,5.98333zm5.63053,-0.04989c0,-5.75526 -2.7529,-9.77147 -9.51845,-9.77147c-6.46264,0 -9.56834,4.06432 -9.56834,9.77147c0,5.95839 3.15559,9.87125 9.46678,9.87125c6.46264,0 9.62002,-3.88792 9.62002,-9.87125zm16.08088,0.04989c0,4.19083 -1.26152,6.13479 -3.96276,6.13479c-2.39832,0 -3.83803,-2.1453 -3.83803,-6.13479s1.26152,-5.98333 3.93781,-5.98333c2.45,0 3.86297,2.0188 3.86297,5.98333zm5.63053,-0.04989c0,-5.75526 -2.77785,-9.77147 -9.51845,-9.77147c-6.46264,0 -9.56834,4.06432 -9.56834,9.77147c0,5.95839 3.13065,9.87125 9.46678,9.87125c6.46442,0 9.62002,-3.88792 9.62002,-9.87125zm15.82964,9.51667l5.95839,0l-6.94373,-11.46063l6.38781,-7.47293l-5.85682,0l-6.18646,7.44799l0,-16.23411l-5.52897,0l0,27.71969l5.52897,0l0,-6.63904l1.89407,-1.59116l4.74675,8.2302zm13.85895,-18.93356l-5.60381,0l0,12.64732c0,3.38367 1.46465,6.64082 6.13479,6.64082c2.60145,0 4.82159,-1.06018 6.05817,-4.24072c0,0.882 0.22807,3.53334 0.25302,3.88614l5.37752,0c-0.07484,-0.42764 -0.15145,-3.10392 -0.15145,-4.26566l0,-14.6679l-5.60381,0l0,10.29889c0,3.00592 -1.33814,4.77348 -3.53512,4.77348c-2.22192,0 -2.9293,-1.28825 -2.9293,-3.93781l0,-11.13456zm35.64877,9.36522c0,-5.63053 -2.04552,-9.7198 -7.02035,-9.7198c-3.00236,0 -5.19934,1.06018 -6.08312,3.71152c0,-1.23658 -0.09978,-2.34843 -0.1764,-3.35694l-5.40246,0c0.04989,0.93367 0.17818,2.47316 0.17818,4.44206l0,22.64686l5.4773,0l0,-8.23198c0,-1.08334 -0.07662,-2.3217 -0.15145,-3.10392c1.21163,2.85269 3.71152,3.53512 5.83188,3.53512c5.02472,0 7.34642,-3.81308 7.34642,-9.92293zm-5.75526,0.05167c0,4.31734 -1.38982,6.05817 -3.61174,6.05817c-1.666,0 -3.73647,-1.16174 -3.73647,-6.00828c0,-4.69508 1.96891,-5.93344 3.73647,-5.93344c2.34843,0 3.60996,1.64105 3.60996,5.88355l0.00178,0z"/>
   <g stroke="null" fill="#C67D4E">
    <path stroke="null" d="m3.99951,67.09517l54.19033,0l0,-54.19033l-54.19033,0l0,54.19033zm3.38545,-50.8031l47.41943,0l0,47.41587l-47.41943,0l0,-47.41587z"/>
    <path stroke="null" d="m14.90422,41.43525l15.17215,0l-7.58697,-13.11059l-7.58519,13.11059zm17.21055,-5.9281l15.17215,0l-7.58519,-13.10881l-7.58697,13.10881zm-17.21233,22.14796l15.17393,0l-7.58697,-13.10881l-7.58697,13.10881zm17.21233,-5.92632l15.17215,0l-7.58519,-13.10881l-7.58697,13.10881z"/>
   </g>
  </g>
 </g>
</svg>